<?xml version="1.0" ?>
<svg height="24" viewBox="0 0 24 24" width="24" xmlns="http://www.w3.org/2000/svg">
  <path d="M23.553,12.086 L20.687,23.5 L3.5,23.5 L0.635,12.086 C5.648,10.295,4.574,6.021,3.5,2.082 L7.797,0.661 C8.154,4.241,16.032,4.246,16.391,0.666 L20.688,2.079 C19.613,6.018,18.539,10.295,23.553,12.086 Z" fill="none" stroke="#000000" stroke-linejoin="round" stroke-miterlimit="10" stroke-width="1"/>
  <path d="M1.24,14.5 L8.594,14.5 C9.698,14.5,10.594,15.397,10.594,16.5 L10.594,18.5 C10.594,19.604,9.698,20.5,8.594,20.5 L2.746,20.5" fill="none" stroke="#000000" stroke-linejoin="round" stroke-miterlimit="10" stroke-width="1"/>
  <path d="M22.945,14.5 L15.593,14.5 C14.488,14.5,13.593,15.397,13.593,16.5 L13.593,18.5 C13.593,19.604,14.488,20.5,15.593,20.5 L21.44,20.5" fill="none" stroke="#000000" stroke-linejoin="round" stroke-miterlimit="10" stroke-width="1"/>
  <path d="M7.797,0.661 C8.985,10.45,15.203,10.442,16.391,0.666" fill="none" stroke="#000000" stroke-linejoin="round" stroke-miterlimit="10" stroke-width="1"/>
  <path d="M9.594,11.5 C9.594,12.052,9.147,12.5,8.594,12.5 L6.594,12.5 C6.041,12.5,5.594,12.052,5.594,11.5 L5.594,10.5 C5.594,9.948,6.041,9.5,6.594,9.5 L8.594,9.5 C9.147,9.5,9.594,9.948,9.594,10.5 L9.594,11.5 Z" fill="none" stroke="#000000" stroke-linejoin="round" stroke-miterlimit="10" stroke-width="1"/>
  <path d="M17.594,11.5 C17.594,12.052,17.147,12.5,16.594,12.5 L14.594,12.5 C14.041,12.5,13.594,12.052,13.594,11.5 L13.594,10.5 C13.594,9.948,14.041,9.5,14.594,9.5 L16.594,9.5 C17.147,9.5,17.594,9.948,17.594,10.5 L17.594,11.5 Z" fill="none" stroke="#000000" stroke-linejoin="round" stroke-miterlimit="10" stroke-width="1"/>
  <path d="M1.994,17.5 L5.594,17.5" fill="none" stroke="#000000" stroke-linecap="round" stroke-linejoin="round" stroke-miterlimit="10" stroke-width="1"/>
  <path d="M22.193,17.5 L18.594,17.5" fill="none" stroke="#000000" stroke-linecap="round" stroke-linejoin="round" stroke-miterlimit="10" stroke-width="1"/>
  <path d="M23.553,12.086 L20.687,23.5 L3.5,23.5 L0.635,12.086 C5.648,10.295,4.574,6.021,3.5,2.082 L7.797,0.661 C8.154,4.241,16.032,4.246,16.391,0.666 L20.688,2.079 C19.613,6.018,18.539,10.295,23.553,12.086 Z" fill="none" stroke="#000000" stroke-linejoin="round" stroke-miterlimit="10" stroke-width="1"/>
  <path d="M1.24,14.5 L8.594,14.5 C9.698,14.5,10.594,15.397,10.594,16.5 L10.594,18.5 C10.594,19.604,9.698,20.5,8.594,20.5 L2.746,20.5" fill="none" stroke="#000000" stroke-linejoin="round" stroke-miterlimit="10" stroke-width="1"/>
  <path d="M22.945,14.5 L15.593,14.5 C14.488,14.5,13.593,15.397,13.593,16.5 L13.593,18.5 C13.593,19.604,14.488,20.5,15.593,20.5 L21.44,20.5" fill="none" stroke="#000000" stroke-linejoin="round" stroke-miterlimit="10" stroke-width="1"/>
  <path d="M7.797,0.661 C8.985,10.45,15.203,10.442,16.391,0.666" fill="none" stroke="#000000" stroke-linejoin="round" stroke-miterlimit="10" stroke-width="1"/>
  <path d="M9.594,11.5 C9.594,12.052,9.147,12.5,8.594,12.5 L6.594,12.5 C6.041,12.5,5.594,12.052,5.594,11.5 L5.594,10.5 C5.594,9.948,6.041,9.5,6.594,9.5 L8.594,9.5 C9.147,9.5,9.594,9.948,9.594,10.5 L9.594,11.5 Z" fill="none" stroke="#000000" stroke-linejoin="round" stroke-miterlimit="10" stroke-width="1"/>
  <path d="M17.594,11.5 C17.594,12.052,17.147,12.5,16.594,12.5 L14.594,12.5 C14.041,12.5,13.594,12.052,13.594,11.5 L13.594,10.5 C13.594,9.948,14.041,9.5,14.594,9.5 L16.594,9.5 C17.147,9.5,17.594,9.948,17.594,10.5 L17.594,11.5 Z" fill="none" stroke="#000000" stroke-linejoin="round" stroke-miterlimit="10" stroke-width="1"/>
  <path d="M1.994,17.5 L5.594,17.5" fill="none" stroke="#000000" stroke-linecap="round" stroke-linejoin="round" stroke-miterlimit="10" stroke-width="1"/>
  <path d="M22.193,17.5 L18.594,17.5" fill="none" stroke="#000000" stroke-linecap="round" stroke-linejoin="round" stroke-miterlimit="10" stroke-width="1"/>
</svg>
