<svg xmlns="http://www.w3.org/2000/svg" width="17" height="20"><path fill="#21303E" d="M16.923 16.923c0 2.114-4.386 3.077-8.461 3.077C4.386 20 0 19.037 0 16.923c0-1.626 2.42-2.393 4.45-2.751a.77.77 0 0 1 .267 1.516c-2.448.43-3.14 1.103-3.18 1.247.118.403 2.426 1.527 6.925 1.527 4.498 0 6.806-1.124 6.924-1.55-.04-.12-.736-.798-3.201-1.227a.77.77 0 0 1 .265-1.516c2.04.356 4.473 1.121 4.473 2.754zM5.385 12.308h.769v4.615a.77.77 0 0 0 .77.769H10a.77.77 0 0 0 .77-.769v-4.615h.768a.77.77 0 0 0 .77-.77V6.923c0-.393-.618-1.257-1.69-1.382-.44-.084-1.288-.144-2.144-.144-.864-.001-1.725.06-2.17.144-1.071.125-1.689.99-1.689 1.382v4.615c0 .424.346.77.77.77zm3.077-7.693A2.308 2.308 0 1 0 8.46 0a2.308 2.308 0 0 0 0 4.616z"/></svg>